# xmcd CD database file
#
# Track frame offsets:
#	150
#	31803
#	60313
#	78753
#	103146
#	122014
#	142838
#	167052
#	196821
#
# Disc length: 2938 seconds
#
# Revision: 1
# Processed by: cddbd v1.4PL0 Copyright (c) Steve Scherf et al.
# Submitted via: CDex 1.50Beta7
#
DISCID=660b7809
DTITLE=Manu Dibango - Kamer Feeling
DYEAR=2001
DGENRE=Jazz
TTITLE0=Bolingo City
TTITLE1=Mouvement Ewondo
TTITLE2=K. Dansez-Moi Ca
TTITLE3=Ongele Mba
TTITLE4=Lily
TTITLE5=Ashiko Mouv'
TTITLE6=Mulema Etoum
TTITLE7=Africratie
TTITLE8=Descarga Around Sango Rkk
EXTD=YEAR: 2001
EXTT0=
EXTT1=
EXTT2=
EXTT3=
EXTT4=
EXTT5=
EXTT6=
EXTT7=
EXTT8=
PLAYORDER=
